<?xml version="1.0" standalone="no"?>
<!DOCTYPE svg PUBLIC "-//W3C//DTD SVG 20010904//EN"
 "http://www.w3.org/TR/2001/REC-SVG-20010904/DTD/svg10.dtd">
<svg version="1.0" xmlns="http://www.w3.org/2000/svg"
 width="512.000000pt" height="512.000000pt" viewBox="0 0 512.000000 512.000000"
 preserveAspectRatio="xMidYMid meet">
<metadata>
Created by potrace 1.14, written by Peter Selinger 2001-2017
</metadata>
<g transform="translate(0.000000,512.000000) scale(0.100000,-0.100000)"
fill="#000000" stroke="none">
<path d="M3820 5102 c-48 -57 -278 -235 -435 -337 -165 -108 -262 -156 -480
-241 -238 -93 -333 -134 -530 -229 -522 -254 -903 -539 -1183 -885 -412 -508
-555 -1112 -417 -1755 25 -116 58 -231 95 -330 12 -33 28 -77 36 -98 36 -96
139 -281 153 -275 5 2 34 41 66 88 117 174 247 314 394 428 143 110 294 230
335 267 6 6 42 37 81 70 170 147 467 447 604 610 364 434 624 851 813 1305 26
63 48 110 48 103 0 -7 -25 -80 -55 -163 -177 -488 -409 -928 -693 -1315 -37
-49 -69 -92 -72 -95 -3 -3 -24 -30 -46 -60 -23 -30 -50 -64 -60 -75 -11 -12
-44 -50 -74 -85 -86 -102 -271 -292 -385 -395 -40 -36 -206 -170 -371 -299
-182 -142 -311 -334 -434 -646 -37 -94 -105 -301 -114 -350 -3 -14 -12 -52
-21 -84 -8 -33 -18 -75 -21 -94 -3 -19 -8 -44 -10 -56 -2 -11 -7 -40 -11 -64
l-6 -42 39 16 c22 10 93 36 159 59 l120 42 22 104 c32 155 97 339 166 473 l61
118 75 -8 c95 -11 524 -12 611 -1 162 18 171 20 315 53 338 79 627 219 892
432 103 84 254 229 302 292 14 19 33 42 42 51 28 29 155 212 211 304 141 233
267 547 303 754 3 19 8 37 10 40 2 4 6 38 10 76 3 39 8 79 10 90 17 84 25 527
12 615 -3 19 -9 62 -12 95 -7 70 -13 110 -20 145 -3 14 -7 43 -9 65 -10 89
-87 391 -138 540 -81 237 -221 536 -334 712 -18 29 -35 53 -36 53 -2 0 -10 -8
-18 -18z"/>
</g>
</svg>
